<?xml version="1.0" encoding="utf-8"?>
<!-- Generator: Adobe Illustrator 18.0.0, SVG Export Plug-In . SVG Version: 6.00 Build 0)  -->
<!DOCTYPE svg PUBLIC "-//W3C//DTD SVG 1.1//EN" "http://www.w3.org/Graphics/SVG/1.1/DTD/svg11.dtd">
<svg version="1.1" id="Layer_1" xmlns="http://www.w3.org/2000/svg" xmlns:xlink="http://www.w3.org/1999/xlink" x="0px" y="0px"
	 viewBox="0 0 303 45" enable-background="new 0 0 303 45" xml:space="preserve">
<g>
	<g>
		<g>
			<defs>
				<path id="SVGID_1_" d="M1.5,4.1c0-1.7,1.4-3,3-3h19.6c1.6,0,3.3,1.3,3.7,2.9l0.7,3.3c0.4,1.6-0.7,2.9-2.3,2.9H13.9
					c-1.6,0-3,1.4-3,3V14c0,1.6,1.4,3,3,3h13.7c1.6,0,3.3,1.3,3.6,2.9l0.6,2.9c0.3,1.6-0.7,2.9-2.4,2.9H13.9c-1.6,0-3,1.4-3,3v2.5
					c0,1.7,1.4,3,3,3h17.1c1.7,0,3.3,1.3,3.8,2.9l1.1,3.9c0.4,1.6-0.6,2.9-2.2,2.9H4.5c-1.6,0-3-1.3-3-3V4.1z"/>
			</defs>
			<clipPath id="SVGID_2_">
				<use xlink:href="#SVGID_1_"  overflow="visible"/>
			</clipPath>
		</g>
		<g>
			<defs>
				<path id="SVGID_3_" d="M1.5,4.1c0-1.7,1.4-3,3-3h19.6c1.6,0,3.3,1.3,3.7,2.9l0.7,3.3c0.4,1.6-0.7,2.9-2.3,2.9H13.9
					c-1.6,0-3,1.4-3,3V14c0,1.6,1.4,3,3,3h13.7c1.6,0,3.3,1.3,3.6,2.9l0.6,2.9c0.3,1.6-0.7,2.9-2.4,2.9H13.9c-1.6,0-3,1.4-3,3v2.5
					c0,1.7,1.4,3,3,3h17.1c1.7,0,3.3,1.3,3.8,2.9l1.1,3.9c0.4,1.6-0.6,2.9-2.2,2.9H4.5c-1.6,0-3-1.3-3-3V4.1z"/>
			</defs>
			<use xlink:href="#SVGID_3_"  overflow="visible" fill="#6B439A"/>
			<clipPath id="SVGID_4_">
				<use xlink:href="#SVGID_3_"  overflow="visible"/>
			</clipPath>
			<g clip-path="url(#SVGID_4_)">
				<path fill="#6B439A" d="M44.9,91.4"/>
				<path fill="none" stroke="#FFFFFF" stroke-width="5" stroke-miterlimit="10" d="M44.9,91.4"/>
			</g>
			<use xlink:href="#SVGID_3_"  overflow="visible" fill="none" stroke="#FFFFFF" stroke-miterlimit="10"/>
		</g>
		<g>
			<defs>
				<path id="SVGID_5_" d="M1.5,4.1c0-1.7,1.4-3,3-3h19.6c1.6,0,3.3,1.3,3.7,2.9l0.7,3.3c0.4,1.6-0.7,2.9-2.3,2.9H13.9
					c-1.6,0-3,1.4-3,3V14c0,1.6,1.4,3,3,3h13.7c1.6,0,3.3,1.3,3.6,2.9l0.6,2.9c0.3,1.6-0.7,2.9-2.4,2.9H13.9c-1.6,0-3,1.4-3,3v2.5
					c0,1.7,1.4,3,3,3h17.1c1.7,0,3.3,1.3,3.8,2.9l1.1,3.9c0.4,1.6-0.6,2.9-2.2,2.9H4.5c-1.6,0-3-1.3-3-3V4.1z"/>
			</defs>
			<clipPath id="SVGID_6_">
				<use xlink:href="#SVGID_5_"  overflow="visible"/>
			</clipPath>
		</g>
	</g>
	<g>
		<path d="M27.8,4c-0.4-1.6,0.7-2.9,2.3-2.9h6.6c1.7,0,3.3,1.3,3.6,2.9l3.4,18.1c0.3,1.6,0.9,1.6,1.4,0.1l5-18.3
			c0.4-1.6,2.1-2.9,3.8-2.9h6.6c1.7,0,3.4,1.3,3.8,2.9l5.1,18.2c0.4,1.6,1.1,1.6,1.4-0.1L74.1,4c0.3-1.6,1.9-2.9,3.6-2.9h6.5
			c1.7,0,2.7,1.3,2.4,2.9l-8.2,37.1c-0.4,1.6-2,2.9-3.6,2.9h-7c-1.7,0-3.4-1.3-3.8-2.9L58,19.8c-0.4-1.6-1.2-1.6-1.6,0l-5.9,21.3
			C50,42.7,48.3,44,46.7,44h-7c-1.7,0-3.3-1.3-3.7-2.9L27.8,4z"/>
	</g>
	<g>
		<g>
			<defs>
				<path id="SVGID_7_" d="M84.7,4.2c0.3-1.6,2-2.9,3.6-2.9H101c1.7,0,4.3,0.2,6,0.4c0,0,4.9,0.7,7.1,3s3.3,5.5,3.3,9.6
					c0,4.3-1.2,7.6-3.6,10.1c-2.4,2.4-8.1,3.2-8.1,3.2c-1.6,0.2-4.3,0.4-6,0.4h-0.8c-1.7,0-3.3,1.3-3.7,2.9l-2.3,9.9
					c-0.4,1.6-2,2.9-3.7,2.9h-9.6c-1.7,0-2.7-1.3-2.4-2.9L84.7,4.2z"/>
			</defs>
			<clipPath id="SVGID_8_">
				<use xlink:href="#SVGID_7_"  overflow="visible"/>
			</clipPath>
		</g>
		<g>
			<defs>
				<path id="SVGID_9_" d="M84.7,4.2c0.3-1.6,2-2.9,3.6-2.9H101c1.7,0,4.3,0.2,6,0.4c0,0,4.9,0.7,7.1,3s3.3,5.5,3.3,9.6
					c0,4.3-1.2,7.6-3.6,10.1c-2.4,2.4-8.1,3.2-8.1,3.2c-1.6,0.2-4.3,0.4-6,0.4h-0.8c-1.7,0-3.3,1.3-3.7,2.9l-2.3,9.9
					c-0.4,1.6-2,2.9-3.7,2.9h-9.6c-1.7,0-2.7-1.3-2.4-2.9L84.7,4.2z"/>
			</defs>
			<use xlink:href="#SVGID_9_"  overflow="visible" fill="#100B13"/>
			<clipPath id="SVGID_10_">
				<use xlink:href="#SVGID_9_"  overflow="visible"/>
			</clipPath>
			<g clip-path="url(#SVGID_10_)">
				<path fill="#100B13" d="M69.5,90.8"/>
				<path fill="none" stroke="#FFFFFF" stroke-width="5" stroke-miterlimit="10" d="M69.5,90.8"/>
			</g>
			<use xlink:href="#SVGID_9_"  overflow="visible" fill="none" stroke="#FFFFFF" stroke-miterlimit="10"/>
		</g>
		<g>
			<defs>
				<path id="SVGID_11_" d="M84.7,4.2c0.3-1.6,2-2.9,3.6-2.9H101c1.7,0,4.3,0.2,6,0.4c0,0,4.9,0.7,7.1,3s3.3,5.5,3.3,9.6
					c0,4.3-1.2,7.6-3.6,10.1c-2.4,2.4-8.1,3.2-8.1,3.2c-1.6,0.2-4.3,0.4-6,0.4h-0.8c-1.7,0-3.3,1.3-3.7,2.9l-2.3,9.9
					c-0.4,1.6-2,2.9-3.7,2.9h-9.6c-1.7,0-2.7-1.3-2.4-2.9L84.7,4.2z"/>
			</defs>
			<clipPath id="SVGID_12_">
				<use xlink:href="#SVGID_11_"  overflow="visible"/>
			</clipPath>
		</g>
	</g>
</g>
<g>
	<path d="M135,21c0,0.1,0,0.2,0,0.2c0,0.1,0,0.1-0.1,0.2s-0.1,0.1-0.1,0.1s-0.1,0-0.1,0h-5.9c-0.1,0-0.2,0-0.4-0.1
		c-0.1-0.1-0.2-0.2-0.2-0.5V9.5c0-0.2,0.1-0.4,0.2-0.5c0.1-0.1,0.2-0.1,0.4-0.1h5.8c0,0,0.1,0,0.1,0s0.1,0.1,0.1,0.1
		c0,0,0,0.1,0.1,0.2c0,0.1,0,0.1,0,0.2c0,0.1,0,0.2,0,0.2c0,0.1,0,0.1-0.1,0.2c0,0-0.1,0.1-0.1,0.1s-0.1,0-0.1,0h-5.2v4.4h4.5
		c0.1,0,0.1,0,0.1,0s0.1,0.1,0.1,0.1c0,0,0,0.1,0.1,0.2c0,0.1,0,0.1,0,0.2c0,0.1,0,0.2,0,0.2c0,0.1,0,0.1-0.1,0.2
		c0,0-0.1,0.1-0.1,0.1s-0.1,0-0.1,0h-4.5v5h5.3c0,0,0.1,0,0.1,0s0.1,0.1,0.1,0.1s0,0.1,0.1,0.2C135,20.8,135,20.9,135,21z"/>
	<path d="M138.9,21.3c0,0,0,0.1,0,0.1s-0.1,0.1-0.1,0.1c0,0-0.1,0-0.2,0c-0.1,0-0.2,0-0.3,0c-0.1,0-0.2,0-0.3,0c-0.1,0-0.1,0-0.2,0
		c0,0-0.1,0-0.1-0.1c0,0,0-0.1,0-0.1V8.2c0,0,0-0.1,0-0.1c0,0,0-0.1,0.1-0.1c0,0,0.1,0,0.2,0c0.1,0,0.2,0,0.3,0c0.1,0,0.2,0,0.3,0
		c0.1,0,0.1,0,0.2,0c0,0,0.1,0.1,0.1,0.1s0,0.1,0,0.1V21.3z"/>
	<path d="M149.4,16.5c0,0.2-0.1,0.4-0.2,0.5c-0.1,0.1-0.2,0.1-0.4,0.1h-6c0,0.5,0.1,1,0.2,1.5s0.3,0.8,0.5,1.1
		c0.2,0.3,0.6,0.6,1,0.7c0.4,0.2,0.9,0.3,1.5,0.3c0.4,0,0.8,0,1.1-0.1c0.3-0.1,0.6-0.2,0.8-0.2c0.2-0.1,0.4-0.2,0.6-0.2
		c0.2-0.1,0.3-0.1,0.3-0.1c0,0,0.1,0,0.1,0c0,0,0.1,0.1,0.1,0.1s0,0.1,0,0.2s0,0.1,0,0.2c0,0,0,0.1,0,0.1c0,0,0,0.1,0,0.1
		s0,0.1,0,0.1s0,0.1-0.1,0.1c0,0-0.1,0.1-0.3,0.2c-0.2,0.1-0.4,0.2-0.7,0.2s-0.6,0.2-1,0.2s-0.8,0.1-1.2,0.1c-0.7,0-1.3-0.1-1.8-0.3
		s-1-0.5-1.3-0.9c-0.4-0.4-0.6-0.9-0.8-1.5s-0.3-1.3-0.3-2.1c0-0.7,0.1-1.4,0.3-2c0.2-0.6,0.5-1.1,0.8-1.5c0.4-0.4,0.8-0.7,1.3-0.9
		c0.5-0.2,1.1-0.3,1.7-0.3c0.7,0,1.2,0.1,1.7,0.3s0.9,0.5,1.2,0.9s0.5,0.8,0.7,1.3c0.1,0.5,0.2,1,0.2,1.6V16.5z M148.2,16.1
		c0-0.9-0.2-1.7-0.6-2.2s-1.1-0.8-2-0.8c-0.4,0-0.8,0.1-1.2,0.2c-0.3,0.2-0.6,0.4-0.8,0.7c-0.2,0.3-0.4,0.6-0.5,1
		c-0.1,0.4-0.2,0.7-0.2,1.1H148.2z"/>
	<path d="M164.7,21.3c0,0,0,0.1,0,0.1s-0.1,0.1-0.1,0.1s-0.1,0-0.2,0s-0.2,0-0.3,0c-0.1,0-0.2,0-0.3,0s-0.1,0-0.2,0s-0.1,0-0.1-0.1
		s0-0.1,0-0.1v-5.4c0-0.4,0-0.8-0.1-1.1s-0.2-0.6-0.4-0.9s-0.4-0.4-0.6-0.6s-0.5-0.2-0.9-0.2c-0.4,0-0.8,0.2-1.2,0.5
		s-0.9,0.8-1.4,1.4v6.3c0,0,0,0.1,0,0.1s-0.1,0.1-0.1,0.1s-0.1,0-0.2,0s-0.2,0-0.3,0c-0.1,0-0.2,0-0.3,0c-0.1,0-0.1,0-0.2,0
		c0,0-0.1,0-0.1-0.1c0,0,0-0.1,0-0.1v-5.4c0-0.4,0-0.8-0.1-1.1s-0.2-0.6-0.4-0.9c-0.2-0.2-0.4-0.4-0.6-0.6s-0.5-0.2-0.9-0.2
		c-0.4,0-0.8,0.2-1.2,0.5s-0.9,0.8-1.4,1.4v6.3c0,0,0,0.1,0,0.1s-0.1,0.1-0.1,0.1c0,0-0.1,0-0.2,0c-0.1,0-0.2,0-0.3,0
		c-0.1,0-0.2,0-0.3,0c-0.1,0-0.1,0-0.2,0c0,0-0.1,0-0.1-0.1c0,0,0-0.1,0-0.1v-8.8c0,0,0-0.1,0-0.1c0,0,0-0.1,0.1-0.1
		c0,0,0.1,0,0.2,0s0.2,0,0.3,0c0.1,0,0.2,0,0.3,0c0.1,0,0.1,0,0.2,0s0.1,0.1,0.1,0.1c0,0,0,0.1,0,0.1v1.3c0.5-0.6,1-1,1.4-1.2
		c0.5-0.3,0.9-0.4,1.4-0.4c0.4,0,0.7,0,1,0.1c0.3,0.1,0.5,0.2,0.8,0.4c0.2,0.2,0.4,0.4,0.6,0.6s0.3,0.5,0.4,0.7
		c0.3-0.3,0.6-0.6,0.9-0.9s0.5-0.4,0.8-0.6s0.5-0.2,0.7-0.3s0.5-0.1,0.7-0.1c0.6,0,1,0.1,1.4,0.3s0.7,0.5,0.9,0.8s0.4,0.7,0.5,1.2
		s0.2,0.9,0.2,1.4V21.3z"/>
	<path d="M175.1,16.5c0,0.2-0.1,0.4-0.2,0.5s-0.2,0.1-0.4,0.1h-6c0,0.5,0.1,1,0.2,1.5s0.3,0.8,0.5,1.1s0.6,0.6,1,0.7
		s0.9,0.3,1.5,0.3c0.4,0,0.8,0,1.1-0.1s0.6-0.2,0.8-0.2s0.4-0.2,0.6-0.2s0.3-0.1,0.3-0.1c0,0,0.1,0,0.1,0s0.1,0.1,0.1,0.1
		s0,0.1,0,0.2s0,0.1,0,0.2c0,0,0,0.1,0,0.1s0,0.1,0,0.1s0,0.1,0,0.1s0,0.1-0.1,0.1s-0.1,0.1-0.3,0.2s-0.4,0.2-0.7,0.2
		s-0.6,0.2-1,0.2s-0.8,0.1-1.2,0.1c-0.7,0-1.3-0.1-1.8-0.3s-1-0.5-1.3-0.9s-0.6-0.9-0.8-1.5s-0.3-1.3-0.3-2.1c0-0.7,0.1-1.4,0.3-2
		s0.5-1.1,0.8-1.5s0.8-0.7,1.3-0.9s1.1-0.3,1.7-0.3c0.7,0,1.2,0.1,1.7,0.3s0.9,0.5,1.2,0.9s0.5,0.8,0.7,1.3s0.2,1,0.2,1.6V16.5z
		 M173.9,16.1c0-0.9-0.2-1.7-0.6-2.2s-1.1-0.8-2-0.8c-0.4,0-0.8,0.1-1.2,0.2s-0.6,0.4-0.8,0.7s-0.4,0.6-0.5,1s-0.2,0.7-0.2,1.1
		H173.9z"/>
	<path d="M184.9,21.3c0,0,0,0.1,0,0.1s-0.1,0.1-0.1,0.1s-0.1,0-0.2,0s-0.2,0-0.3,0c-0.1,0-0.2,0-0.3,0s-0.1,0-0.2,0s-0.1,0-0.1-0.1
		s0-0.1,0-0.1v-5.2c0-0.5,0-1-0.1-1.3s-0.2-0.6-0.4-0.9s-0.4-0.4-0.6-0.6s-0.6-0.2-0.9-0.2c-0.4,0-0.9,0.2-1.3,0.5s-0.9,0.8-1.4,1.4
		v6.3c0,0,0,0.1,0,0.1s-0.1,0.1-0.1,0.1s-0.1,0-0.2,0s-0.2,0-0.3,0c-0.1,0-0.2,0-0.3,0s-0.1,0-0.2,0s-0.1,0-0.1-0.1s0-0.1,0-0.1
		v-8.8c0,0,0-0.1,0-0.1s0-0.1,0.1-0.1s0.1,0,0.2,0s0.2,0,0.3,0s0.2,0,0.3,0s0.1,0,0.2,0s0.1,0.1,0.1,0.1s0,0.1,0,0.1v1.3
		c0.5-0.6,1-1,1.5-1.2s1-0.4,1.5-0.4c0.6,0,1.1,0.1,1.5,0.3s0.7,0.5,1,0.8s0.4,0.7,0.5,1.2s0.2,1,0.2,1.6V21.3z"/>
	<path d="M192.2,20.8c0,0.1,0,0.2,0,0.3s-0.1,0.2-0.1,0.2s-0.1,0.1-0.2,0.1s-0.2,0.1-0.3,0.1s-0.3,0.1-0.4,0.1s-0.3,0-0.4,0
		c-0.4,0-0.8-0.1-1.1-0.2s-0.6-0.3-0.8-0.5s-0.3-0.5-0.4-0.9s-0.1-0.8-0.1-1.3v-5.5H187c-0.1,0-0.2,0-0.2-0.1s-0.1-0.2-0.1-0.4
		c0-0.1,0-0.2,0-0.2s0-0.1,0.1-0.2s0.1-0.1,0.1-0.1s0.1,0,0.1,0h1.3v-2.2c0,0,0-0.1,0-0.1s0-0.1,0.1-0.1s0.1,0,0.2,0s0.2,0,0.3,0
		c0.1,0,0.2,0,0.3,0s0.1,0,0.2,0s0.1,0.1,0.1,0.1s0,0.1,0,0.1v2.2h2.4c0,0,0.1,0,0.1,0s0.1,0.1,0.1,0.1s0,0.1,0.1,0.2s0,0.1,0,0.2
		c0,0.2,0,0.3-0.1,0.4s-0.1,0.1-0.2,0.1h-2.4v5.3c0,0.7,0.1,1.2,0.3,1.5s0.5,0.5,1,0.5c0.2,0,0.3,0,0.4,0s0.2-0.1,0.3-0.1
		s0.2-0.1,0.2-0.1s0.1,0,0.2,0c0,0,0.1,0,0.1,0s0,0,0.1,0.1s0,0.1,0,0.1S192.2,20.7,192.2,20.8z"/>
	<path d="M202.2,16.8c0,0.7-0.1,1.4-0.3,1.9s-0.5,1.1-0.8,1.5s-0.8,0.8-1.4,1s-1.2,0.4-1.9,0.4c-0.7,0-1.3-0.1-1.8-0.3
		s-1-0.5-1.3-0.9s-0.6-0.9-0.8-1.5s-0.3-1.2-0.3-2c0-0.7,0.1-1.4,0.3-1.9s0.4-1.1,0.8-1.5s0.8-0.8,1.4-1s1.2-0.4,1.9-0.4
		c0.7,0,1.3,0.1,1.8,0.3s0.9,0.5,1.3,0.9s0.6,0.9,0.8,1.5S202.2,16.1,202.2,16.8z M200.9,16.9c0-0.5,0-1-0.1-1.4s-0.3-0.9-0.5-1.2
		s-0.5-0.6-0.9-0.8s-0.9-0.3-1.4-0.3c-0.5,0-1,0.1-1.4,0.3s-0.7,0.5-0.9,0.8s-0.4,0.7-0.5,1.2s-0.2,0.9-0.2,1.5c0,0.5,0,1,0.1,1.5
		s0.3,0.9,0.5,1.2s0.5,0.6,0.9,0.8s0.9,0.3,1.4,0.3c0.5,0,1-0.1,1.4-0.3s0.7-0.4,0.9-0.8s0.4-0.7,0.5-1.2S200.9,17.5,200.9,16.9z"/>
	<path d="M209.7,12.9c0,0.1,0,0.2,0,0.2s0,0.1,0,0.2s0,0.1-0.1,0.1s-0.1,0-0.1,0c-0.1,0-0.1,0-0.2,0s-0.2-0.1-0.3-0.1
		s-0.2-0.1-0.3-0.1s-0.3,0-0.4,0c-0.2,0-0.3,0-0.5,0.1s-0.3,0.2-0.5,0.4s-0.4,0.4-0.6,0.7s-0.4,0.6-0.7,1v6c0,0,0,0.1,0,0.1
		s-0.1,0.1-0.1,0.1s-0.1,0-0.2,0s-0.2,0-0.3,0c-0.1,0-0.2,0-0.3,0s-0.1,0-0.2,0s-0.1,0-0.1-0.1s0-0.1,0-0.1v-8.8c0,0,0-0.1,0-0.1
		s0-0.1,0.1-0.1s0.1,0,0.2,0s0.2,0,0.3,0s0.2,0,0.3,0s0.1,0,0.2,0s0.1,0.1,0.1,0.1s0,0.1,0,0.1v1.4c0.3-0.4,0.5-0.7,0.7-0.9
		s0.4-0.4,0.6-0.5s0.4-0.2,0.6-0.3s0.4-0.1,0.6-0.1c0.1,0,0.2,0,0.3,0s0.2,0,0.4,0.1s0.2,0.1,0.3,0.1s0.2,0.1,0.2,0.1
		s0.1,0.1,0.1,0.1s0,0.1,0,0.1s0,0.1,0,0.1S209.7,12.8,209.7,12.9z"/>
	<path d="M227.8,21.3c0,0.1-0.1,0.1-0.1,0.1s-0.1,0.1-0.2,0.1s-0.1,0-0.2,0s-0.2,0-0.3,0s-0.2,0-0.3,0s-0.2,0-0.2,0s-0.1,0-0.2-0.1
		s-0.1-0.1-0.1-0.1l-3-10.4h0l-2.7,10.4c0,0.1,0,0.1-0.1,0.1s-0.1,0.1-0.1,0.1s-0.1,0-0.2,0s-0.2,0-0.3,0c-0.1,0-0.2,0-0.3,0
		s-0.2,0-0.2,0s-0.1,0-0.2-0.1s-0.1-0.1-0.1-0.1l-3.6-12c0-0.1,0-0.2,0-0.2s0-0.1,0.1-0.1s0.1-0.1,0.2-0.1s0.2,0,0.3,0s0.3,0,0.3,0
		s0.1,0,0.2,0s0.1,0,0.1,0.1s0,0.1,0,0.1l3.2,11.1h0l2.9-11.1c0,0,0-0.1,0-0.1s0.1-0.1,0.1-0.1s0.1,0,0.2,0s0.2,0,0.3,0
		c0.1,0,0.2,0,0.3,0s0.1,0,0.2,0s0.1,0,0.1,0.1s0,0.1,0.1,0.1l3.2,11.1h0l3.1-11.1c0,0,0-0.1,0-0.1s0-0.1,0.1-0.1s0.1,0,0.2,0
		s0.2,0,0.3,0c0.1,0,0.3,0,0.3,0s0.1,0,0.2,0.1s0.1,0.1,0.1,0.1s0,0.1,0,0.2L227.8,21.3z"/>
	<path d="M235.1,9.5c0,0.3-0.1,0.5-0.2,0.6s-0.3,0.2-0.6,0.2c-0.3,0-0.5-0.1-0.6-0.2s-0.2-0.3-0.2-0.6s0.1-0.5,0.2-0.6
		s0.3-0.2,0.6-0.2c0.3,0,0.5,0.1,0.6,0.2S235.1,9.2,235.1,9.5z M235,21.3c0,0,0,0.1,0,0.1s-0.1,0.1-0.1,0.1s-0.1,0-0.2,0
		s-0.2,0-0.3,0c-0.1,0-0.2,0-0.3,0s-0.1,0-0.2,0s-0.1,0-0.1-0.1s0-0.1,0-0.1v-8.8c0,0,0-0.1,0-0.1s0-0.1,0.1-0.1s0.1,0,0.2,0
		s0.2,0,0.3,0c0.1,0,0.2,0,0.3,0s0.1,0,0.2,0s0.1,0.1,0.1,0.1s0,0.1,0,0.1V21.3z"/>
	<path d="M245.3,21.3c0,0,0,0.1,0,0.1s0,0.1-0.1,0.1s-0.1,0-0.2,0s-0.1,0-0.2,0c-0.1,0-0.2,0-0.3,0s-0.1,0-0.2,0s-0.1,0-0.1-0.1
		s0-0.1,0-0.1v-1.3c-0.5,0.5-1,0.9-1.5,1.2s-1,0.4-1.6,0.4c-0.6,0-1.2-0.1-1.6-0.4s-0.8-0.6-1.1-1s-0.5-0.9-0.6-1.5
		s-0.2-1.2-0.2-1.8c0-0.7,0.1-1.4,0.2-2s0.4-1.1,0.7-1.5s0.7-0.7,1.2-1s1-0.3,1.6-0.3c0.5,0,1,0.1,1.5,0.4s0.9,0.6,1.3,1V8.2
		c0,0,0-0.1,0-0.1s0-0.1,0.1-0.1s0.1,0,0.2,0s0.2,0,0.3,0c0.1,0,0.2,0,0.3,0s0.1,0,0.2,0s0.1,0,0.1,0.1s0,0.1,0,0.1V21.3z M244.2,15
		c-0.5-0.6-1-1-1.4-1.4s-0.9-0.5-1.4-0.5c-0.4,0-0.8,0.1-1.2,0.3s-0.6,0.5-0.8,0.8s-0.3,0.7-0.4,1.2s-0.1,0.9-0.1,1.3
		c0,0.5,0,1,0.1,1.4s0.2,0.9,0.4,1.2s0.4,0.7,0.8,0.9s0.7,0.3,1.2,0.3c0.2,0,0.5,0,0.7-0.1s0.4-0.2,0.7-0.3s0.5-0.3,0.7-0.6
		s0.5-0.5,0.8-0.9V15z"/>
	<path d="M255.7,12.8c0,0.2,0,0.3-0.1,0.4s-0.1,0.1-0.2,0.1H254c0.3,0.3,0.5,0.6,0.6,0.9s0.2,0.7,0.2,1c0,0.5-0.1,0.9-0.2,1.3
		s-0.4,0.7-0.7,1s-0.6,0.5-1,0.6s-0.8,0.2-1.3,0.2c-0.4,0-0.8-0.1-1.1-0.2s-0.6-0.2-0.8-0.4c-0.1,0.1-0.2,0.3-0.3,0.4
		s-0.1,0.4-0.1,0.6c0,0.2,0.1,0.5,0.4,0.6s0.5,0.3,0.9,0.3l2.4,0.1c0.4,0,0.8,0.1,1.1,0.2s0.7,0.2,0.9,0.4s0.5,0.4,0.6,0.7
		s0.2,0.6,0.2,1c0,0.4-0.1,0.8-0.2,1.1s-0.4,0.7-0.7,0.9s-0.8,0.5-1.3,0.6s-1.1,0.2-1.9,0.2c-0.7,0-1.3-0.1-1.8-0.2
		s-0.9-0.3-1.2-0.5s-0.5-0.5-0.7-0.7s-0.2-0.6-0.2-0.9c0-0.2,0-0.4,0.1-0.6s0.1-0.4,0.2-0.6s0.2-0.4,0.4-0.5s0.3-0.3,0.6-0.5
		c-0.3-0.2-0.6-0.4-0.7-0.6s-0.2-0.5-0.2-0.8c0-0.4,0.1-0.8,0.2-1.1s0.3-0.6,0.6-0.8c-0.2-0.2-0.3-0.5-0.4-0.8s-0.2-0.6-0.2-1.1
		c0-0.5,0.1-0.9,0.2-1.3s0.4-0.7,0.7-1s0.6-0.5,1-0.6s0.8-0.2,1.3-0.2c0.3,0,0.5,0,0.7,0s0.4,0.1,0.6,0.1h2.6c0.1,0,0.2,0,0.2,0.1
		S255.7,12.6,255.7,12.8z M254.4,22.2c0-0.4-0.2-0.8-0.5-1s-0.8-0.4-1.4-0.4l-2.6-0.1c-0.2,0.2-0.4,0.4-0.6,0.5s-0.3,0.3-0.4,0.5
		s-0.1,0.3-0.2,0.4s0,0.3,0,0.4c0,0.5,0.2,0.8,0.7,1.1s1.2,0.4,2,0.4c0.5,0,1-0.1,1.4-0.2s0.7-0.2,0.9-0.4s0.4-0.4,0.5-0.6
		S254.4,22.5,254.4,22.2z M253.5,15.2c0-0.7-0.2-1.2-0.6-1.6s-0.9-0.6-1.6-0.6c-0.3,0-0.6,0.1-0.9,0.2s-0.5,0.3-0.6,0.5
		s-0.3,0.4-0.4,0.7s-0.1,0.6-0.1,0.8c0,0.7,0.2,1.2,0.6,1.5s0.9,0.6,1.5,0.6c0.4,0,0.7-0.1,0.9-0.2s0.5-0.3,0.6-0.5s0.3-0.4,0.4-0.7
		S253.5,15.5,253.5,15.2z"/>
	<path d="M265,16.5c0,0.2-0.1,0.4-0.2,0.5s-0.2,0.1-0.4,0.1h-6c0,0.5,0.1,1,0.2,1.5s0.3,0.8,0.5,1.1s0.6,0.6,1,0.7s0.9,0.3,1.5,0.3
		c0.4,0,0.8,0,1.1-0.1s0.6-0.2,0.8-0.2s0.4-0.2,0.6-0.2s0.3-0.1,0.3-0.1c0,0,0.1,0,0.1,0s0.1,0.1,0.1,0.1s0,0.1,0,0.2s0,0.1,0,0.2
		c0,0,0,0.1,0,0.1s0,0.1,0,0.1s0,0.1,0,0.1s0,0.1-0.1,0.1s-0.1,0.1-0.3,0.2s-0.4,0.2-0.7,0.2s-0.6,0.2-1,0.2s-0.8,0.1-1.2,0.1
		c-0.7,0-1.3-0.1-1.8-0.3s-1-0.5-1.3-0.9s-0.6-0.9-0.8-1.5s-0.3-1.3-0.3-2.1c0-0.7,0.1-1.4,0.3-2s0.5-1.1,0.8-1.5s0.8-0.7,1.3-0.9
		s1.1-0.3,1.7-0.3c0.7,0,1.2,0.1,1.7,0.3s0.9,0.5,1.2,0.9s0.5,0.8,0.7,1.3s0.2,1,0.2,1.6V16.5z M263.8,16.1c0-0.9-0.2-1.7-0.6-2.2
		s-1.1-0.8-2-0.8c-0.4,0-0.8,0.1-1.2,0.2s-0.6,0.4-0.8,0.7s-0.4,0.6-0.5,1s-0.2,0.7-0.2,1.1H263.8z"/>
	<path d="M271.9,20.8c0,0.1,0,0.2,0,0.3s-0.1,0.2-0.1,0.2s-0.1,0.1-0.2,0.1s-0.2,0.1-0.3,0.1s-0.3,0.1-0.4,0.1s-0.3,0-0.4,0
		c-0.4,0-0.8-0.1-1.1-0.2s-0.6-0.3-0.8-0.5s-0.3-0.5-0.4-0.9s-0.1-0.8-0.1-1.3v-5.5h-1.3c-0.1,0-0.2,0-0.2-0.1s-0.1-0.2-0.1-0.4
		c0-0.1,0-0.2,0-0.2s0-0.1,0.1-0.2s0.1-0.1,0.1-0.1s0.1,0,0.1,0h1.3v-2.2c0,0,0-0.1,0-0.1s0-0.1,0.1-0.1s0.1,0,0.2,0s0.2,0,0.3,0
		c0.1,0,0.2,0,0.3,0s0.1,0,0.2,0s0.1,0.1,0.1,0.1s0,0.1,0,0.1v2.2h2.4c0,0,0.1,0,0.1,0s0.1,0.1,0.1,0.1s0,0.1,0.1,0.2s0,0.1,0,0.2
		c0,0.2,0,0.3-0.1,0.4s-0.1,0.1-0.2,0.1h-2.4v5.3c0,0.7,0.1,1.2,0.3,1.5s0.5,0.5,1,0.5c0.2,0,0.3,0,0.4,0s0.2-0.1,0.3-0.1
		s0.2-0.1,0.2-0.1s0.1,0,0.2,0c0,0,0.1,0,0.1,0s0,0,0.1,0.1s0,0.1,0,0.1S271.9,20.7,271.9,20.8z"/>
	<path d="M286.2,12.5c0,0.6-0.1,1.1-0.3,1.6s-0.5,0.9-0.9,1.3s-0.8,0.6-1.4,0.8s-1.2,0.3-1.9,0.3h-1.6v4.8c0,0,0,0.1,0,0.1
		s-0.1,0.1-0.1,0.1s-0.1,0-0.2,0s-0.2,0-0.3,0c-0.1,0-0.2,0-0.3,0s-0.1,0-0.2,0s-0.1,0-0.1-0.1s0-0.1,0-0.1V9.5
		c0-0.2,0.1-0.4,0.2-0.5s0.2-0.1,0.4-0.1h2.6c0.3,0,0.5,0,0.7,0s0.5,0.1,0.8,0.1s0.7,0.2,1,0.4s0.6,0.5,0.9,0.8s0.4,0.6,0.5,1
		S286.2,12.1,286.2,12.5z M284.9,12.6c0-0.5-0.1-1-0.3-1.4s-0.5-0.7-0.8-0.8s-0.6-0.3-1-0.4s-0.7-0.1-1-0.1h-1.8v5.5h1.7
		c0.6,0,1-0.1,1.4-0.2s0.7-0.3,0.9-0.6s0.4-0.5,0.6-0.9S284.9,13,284.9,12.6z"/>
	<path d="M293.6,12.9c0,0.1,0,0.2,0,0.2s0,0.1,0,0.2s0,0.1-0.1,0.1s-0.1,0-0.1,0c-0.1,0-0.1,0-0.2,0s-0.2-0.1-0.3-0.1
		s-0.2-0.1-0.3-0.1s-0.3,0-0.4,0c-0.2,0-0.3,0-0.5,0.1s-0.3,0.2-0.5,0.4s-0.4,0.4-0.6,0.7s-0.4,0.6-0.7,1v6c0,0,0,0.1,0,0.1
		s-0.1,0.1-0.1,0.1s-0.1,0-0.2,0s-0.2,0-0.3,0c-0.1,0-0.2,0-0.3,0s-0.1,0-0.2,0s-0.1,0-0.1-0.1s0-0.1,0-0.1v-8.8c0,0,0-0.1,0-0.1
		s0-0.1,0.1-0.1s0.1,0,0.2,0s0.2,0,0.3,0s0.2,0,0.3,0s0.1,0,0.2,0s0.1,0.1,0.1,0.1s0,0.1,0,0.1v1.4c0.3-0.4,0.5-0.7,0.7-0.9
		s0.4-0.4,0.6-0.5s0.4-0.2,0.6-0.3s0.4-0.1,0.6-0.1c0.1,0,0.2,0,0.3,0s0.2,0,0.4,0.1s0.2,0.1,0.3,0.1s0.2,0.1,0.2,0.1
		s0.1,0.1,0.1,0.1s0,0.1,0,0.1s0,0.1,0,0.1S293.6,12.8,293.6,12.9z"/>
	<path d="M303,16.8c0,0.7-0.1,1.4-0.3,1.9s-0.5,1.1-0.8,1.5s-0.8,0.8-1.4,1s-1.2,0.4-1.9,0.4c-0.7,0-1.3-0.1-1.8-0.3s-1-0.5-1.3-0.9
		s-0.6-0.9-0.8-1.5s-0.3-1.2-0.3-2c0-0.7,0.1-1.4,0.3-1.9s0.4-1.1,0.8-1.5s0.8-0.8,1.4-1s1.2-0.4,1.9-0.4c0.7,0,1.3,0.1,1.8,0.3
		s0.9,0.5,1.3,0.9s0.6,0.9,0.8,1.5S303,16.1,303,16.8z M301.8,16.9c0-0.5,0-1-0.1-1.4s-0.3-0.9-0.5-1.2s-0.5-0.6-0.9-0.8
		s-0.9-0.3-1.4-0.3c-0.5,0-1,0.1-1.4,0.3s-0.7,0.5-0.9,0.8s-0.4,0.7-0.5,1.2s-0.2,0.9-0.2,1.5c0,0.5,0,1,0.1,1.5s0.3,0.9,0.5,1.2
		s0.5,0.6,0.9,0.8s0.9,0.3,1.4,0.3c0.5,0,1-0.1,1.4-0.3s0.7-0.4,0.9-0.8s0.4-0.7,0.5-1.2S301.8,17.5,301.8,16.9z"/>
</g>
<g>
	<path d="M242.5,31.9l-1,2.7h2.6l-0.2,0.6h-2.6l-1.2,3.3h-0.7l2.6-7.2h3.5l-0.2,0.6H242.5z"/>
	<path d="M246.3,38.6c-0.4,0-0.7-0.1-1-0.2c-0.3-0.1-0.5-0.3-0.6-0.5c-0.1-0.2-0.2-0.5-0.2-0.8s0.1-0.7,0.2-1.1
		c0.2-0.4,0.4-0.8,0.6-1.2c0.2-0.3,0.5-0.6,0.8-0.9c0.3-0.2,0.6-0.4,1-0.5c0.4-0.1,0.7-0.2,1.1-0.2c0.4,0,0.7,0.1,0.9,0.2
		s0.4,0.3,0.6,0.5c0.1,0.2,0.2,0.5,0.2,0.8c0,0.3-0.1,0.7-0.2,1.1c-0.1,0.4-0.3,0.8-0.6,1.1c-0.2,0.3-0.5,0.6-0.8,0.9
		c-0.3,0.2-0.6,0.4-1,0.6C247.1,38.6,246.7,38.6,246.3,38.6z M248.2,33.8c-0.3,0-0.6,0-0.8,0.1c-0.3,0.1-0.5,0.2-0.7,0.4
		c-0.2,0.2-0.4,0.4-0.6,0.7c-0.2,0.3-0.3,0.6-0.5,0.9c-0.1,0.3-0.2,0.6-0.2,0.9s0,0.5,0.1,0.7c0.1,0.2,0.2,0.3,0.4,0.4
		c0.2,0.1,0.4,0.1,0.7,0.1c0.3,0,0.6,0,0.8-0.1c0.3-0.1,0.5-0.2,0.7-0.4s0.4-0.4,0.6-0.7c0.2-0.3,0.3-0.6,0.4-0.9
		c0.3-0.7,0.3-1.2,0.1-1.6C249.1,34,248.7,33.8,248.2,33.8z"/>
	<path d="M254.4,34c-0.1-0.1-0.3-0.2-0.5-0.2c-0.2,0-0.3,0-0.5,0.1c-0.2,0.1-0.3,0.2-0.4,0.3c-0.1,0.1-0.3,0.2-0.4,0.4
		c-0.1,0.1-0.2,0.3-0.3,0.5c-0.1,0.2-0.2,0.3-0.3,0.5c-0.1,0.2-0.1,0.3-0.2,0.5l-0.9,2.5h-0.6l1.9-5.2h0.6l-0.4,1.1h0
		c0.1-0.2,0.3-0.4,0.4-0.5c0.1-0.1,0.3-0.3,0.5-0.4c0.2-0.1,0.3-0.2,0.5-0.2c0.2-0.1,0.3-0.1,0.5-0.1c0.1,0,0.2,0,0.3,0
		c0.1,0,0.1,0,0.2,0.1L254.4,34z"/>
	<path d="M256.6,38.5l2.6-7.2h3.5l-0.2,0.6h-2.9l-1,2.7h2.6l-0.2,0.6h-2.6l-1,2.8h3l-0.2,0.6H256.6z"/>
	<path d="M261.7,38.5l2.8-7.7h0.6l-2.8,7.7H261.7z"/>
	<path d="M265.2,36.1c-0.1,0.3-0.2,0.6-0.2,0.9c0,0.3,0,0.5,0.1,0.6c0.1,0.2,0.2,0.3,0.4,0.4c0.2,0.1,0.4,0.1,0.7,0.1
		c0.6,0,1.2-0.2,1.9-0.6l-0.2,0.6c-0.6,0.4-1.3,0.5-2,0.5c-0.3,0-0.6-0.1-0.9-0.2c-0.2-0.1-0.4-0.3-0.5-0.5
		c-0.1-0.2-0.2-0.5-0.1-0.9c0-0.3,0.1-0.7,0.3-1.2c0.1-0.4,0.3-0.7,0.6-1.1c0.2-0.3,0.5-0.6,0.8-0.9c0.3-0.2,0.6-0.4,0.9-0.6
		c0.3-0.1,0.7-0.2,1-0.2c0.3,0,0.6,0.1,0.8,0.2c0.2,0.1,0.4,0.3,0.5,0.5c0.1,0.2,0.1,0.5,0.1,0.8c0,0.3-0.1,0.7-0.2,1l-0.1,0.3
		H265.2z M268.5,35.5c0.2-0.5,0.2-1,0.1-1.3c-0.1-0.3-0.4-0.4-0.9-0.4c-0.2,0-0.4,0-0.7,0.1c-0.2,0.1-0.4,0.2-0.6,0.3
		c-0.2,0.1-0.4,0.3-0.5,0.5c-0.2,0.2-0.3,0.4-0.5,0.7H268.5z"/>
	<path d="M275.8,38.5l1.1-3c0.1-0.3,0.2-0.6,0.2-0.8c0-0.2,0-0.4,0-0.5c0-0.1-0.1-0.2-0.3-0.3c-0.1-0.1-0.3-0.1-0.5-0.1
		c-0.2,0-0.4,0-0.6,0.1s-0.4,0.2-0.6,0.4c-0.2,0.2-0.3,0.3-0.5,0.6s-0.3,0.4-0.4,0.7l-1.1,3h-0.6l1.1-3.1c0.4-1.1,0.2-1.6-0.7-1.6
		c-0.2,0-0.4,0-0.6,0.1c-0.2,0.1-0.4,0.2-0.6,0.4c-0.2,0.2-0.3,0.3-0.5,0.6c-0.1,0.2-0.3,0.5-0.4,0.7l-1.1,3h-0.6l1.9-5.2h0.6
		l-0.3,0.8h0c0.6-0.6,1.2-1,1.9-1c0.2,0,0.3,0,0.5,0.1c0.1,0.1,0.3,0.1,0.4,0.2s0.2,0.2,0.2,0.4c0,0.1,0.1,0.3,0,0.5
		c0.3-0.4,0.7-0.6,1-0.8c0.4-0.2,0.7-0.3,1.1-0.3c1.1,0,1.4,0.7,0.9,2.1l-1.2,3.2H275.8z"/>
	<path d="M279.3,36.1c-0.1,0.3-0.2,0.6-0.2,0.9c0,0.3,0,0.5,0.1,0.6c0.1,0.2,0.2,0.3,0.4,0.4c0.2,0.1,0.4,0.1,0.7,0.1
		c0.6,0,1.2-0.2,1.9-0.6l-0.2,0.6c-0.6,0.4-1.3,0.5-2,0.5c-0.3,0-0.6-0.1-0.9-0.2c-0.2-0.1-0.4-0.3-0.5-0.5
		c-0.1-0.2-0.2-0.5-0.1-0.9c0-0.3,0.1-0.7,0.3-1.2c0.1-0.4,0.3-0.7,0.6-1.1c0.2-0.3,0.5-0.6,0.8-0.9c0.3-0.2,0.6-0.4,0.9-0.6
		c0.3-0.1,0.7-0.2,1-0.2c0.3,0,0.6,0.1,0.8,0.2c0.2,0.1,0.4,0.3,0.5,0.5c0.1,0.2,0.1,0.5,0.1,0.8c0,0.3-0.1,0.7-0.2,1l-0.1,0.3
		H279.3z M282.5,35.5c0.2-0.5,0.2-1,0.1-1.3c-0.1-0.3-0.4-0.4-0.9-0.4c-0.2,0-0.4,0-0.7,0.1c-0.2,0.1-0.4,0.2-0.6,0.3
		c-0.2,0.1-0.4,0.3-0.5,0.5c-0.2,0.2-0.3,0.4-0.5,0.7H282.5z"/>
	<path d="M286.8,38.5l1.1-3c0.4-1.2,0.2-1.8-0.6-1.8c-0.2,0-0.5,0-0.7,0.1c-0.2,0.1-0.4,0.2-0.6,0.4c-0.2,0.2-0.4,0.3-0.5,0.6
		c-0.2,0.2-0.3,0.5-0.4,0.7l-1.1,3h-0.6l1.9-5.2h0.6l-0.3,0.9h0c0.6-0.7,1.3-1,2.1-1c0.6,0,0.9,0.2,1.1,0.6c0.2,0.4,0.1,0.9-0.1,1.6
		l-1.1,3.1H286.8z"/>
	<path d="M291.3,38.5c-0.3,0.1-0.5,0.2-0.8,0.2c-0.8,0-1.1-0.5-0.7-1.4l1.2-3.3h-0.9l0.2-0.6h0.9l0.5-1.3l0.7-0.2l-0.6,1.5h1.3
		l-0.2,0.6h-1.3l-1.2,3.2c-0.1,0.4-0.2,0.6-0.1,0.8c0.1,0.2,0.2,0.2,0.5,0.2c0.2,0,0.4-0.1,0.6-0.2L291.3,38.5z"/>
	<path d="M294.3,38.6c-0.4,0-0.7-0.1-1-0.2c-0.3-0.1-0.5-0.3-0.6-0.5c-0.1-0.2-0.2-0.5-0.2-0.8s0.1-0.7,0.2-1.1
		c0.2-0.4,0.4-0.8,0.6-1.2c0.2-0.3,0.5-0.6,0.8-0.9c0.3-0.2,0.6-0.4,1-0.5c0.4-0.1,0.7-0.2,1.1-0.2c0.4,0,0.7,0.1,0.9,0.2
		s0.4,0.3,0.6,0.5c0.1,0.2,0.2,0.5,0.2,0.8c0,0.3-0.1,0.7-0.2,1.1c-0.1,0.4-0.3,0.8-0.6,1.1c-0.2,0.3-0.5,0.6-0.8,0.9
		c-0.3,0.2-0.6,0.4-1,0.6C295.1,38.6,294.7,38.6,294.3,38.6z M296.1,33.8c-0.3,0-0.6,0-0.8,0.1c-0.3,0.1-0.5,0.2-0.7,0.4
		c-0.2,0.2-0.4,0.4-0.6,0.7c-0.2,0.3-0.3,0.6-0.5,0.9c-0.1,0.3-0.2,0.6-0.2,0.9s0,0.5,0.1,0.7c0.1,0.2,0.2,0.3,0.4,0.4
		c0.2,0.1,0.4,0.1,0.7,0.1c0.3,0,0.6,0,0.8-0.1c0.3-0.1,0.5-0.2,0.7-0.4s0.4-0.4,0.6-0.7c0.2-0.3,0.3-0.6,0.4-0.9
		c0.3-0.7,0.3-1.2,0.1-1.6C297.1,34,296.7,33.8,296.1,33.8z"/>
	<path d="M302.4,34c-0.1-0.1-0.3-0.2-0.5-0.2c-0.2,0-0.3,0-0.5,0.1c-0.2,0.1-0.3,0.2-0.4,0.3c-0.1,0.1-0.3,0.2-0.4,0.4
		c-0.1,0.1-0.2,0.3-0.3,0.5c-0.1,0.2-0.2,0.3-0.3,0.5c-0.1,0.2-0.1,0.3-0.2,0.5l-0.9,2.5h-0.6l1.9-5.2h0.6l-0.4,1.1h0
		c0.1-0.2,0.3-0.4,0.4-0.5c0.1-0.1,0.3-0.3,0.5-0.4c0.2-0.1,0.3-0.2,0.5-0.2c0.2-0.1,0.3-0.1,0.5-0.1c0.1,0,0.2,0,0.3,0
		c0.1,0,0.1,0,0.2,0.1L302.4,34z"/>
</g>
</svg>
