<?xml version="1.0" encoding="utf-8"?>
<!-- Generator: Adobe Illustrator 18.0.0, SVG Export Plug-In . SVG Version: 6.00 Build 0)  -->
<!DOCTYPE svg PUBLIC "-//W3C//DTD SVG 1.1//EN" "http://www.w3.org/Graphics/SVG/1.1/DTD/svg11.dtd">
<svg version="1.1" id="Layer_1" xmlns="http://www.w3.org/2000/svg" xmlns:xlink="http://www.w3.org/1999/xlink" x="0px" y="0px"
	 viewBox="0 0 612 792" enable-background="new 0 0 612 792" xml:space="preserve">
<g>
	<g>
		<g>
			<defs>
				<path id="SVGID_1_" d="M155.2,354.1c0-1.6,1.3-3,3-3h19.6c1.6,0,3.3,1.3,3.7,2.9l0.7,3.3c0.4,1.6-0.7,2.9-2.3,2.9h-12.2
					c-1.7,0-3,1.4-3,3v0.8c0,1.6,1.3,3,3,3h13.7c1.7,0,3.3,1.3,3.6,2.9l0.6,2.9c0.3,1.6-0.7,2.9-2.4,2.9h-15.5c-1.7,0-3,1.4-3,3v2.5
					c0,1.6,1.3,3,3,3h17.1c1.6,0,3.3,1.3,3.8,2.9l1.1,3.9c0.4,1.6-0.6,2.9-2.2,2.9h-29.2c-1.7,0-3-1.4-3-3V354.1z"/>
			</defs>
			<clipPath id="SVGID_2_">
				<use xlink:href="#SVGID_1_"  overflow="visible"/>
			</clipPath>
		</g>
		<g>
			<defs>
				<path id="SVGID_3_" d="M155.2,354.1c0-1.6,1.3-3,3-3h19.6c1.6,0,3.3,1.3,3.7,2.9l0.7,3.3c0.4,1.6-0.7,2.9-2.3,2.9h-12.2
					c-1.7,0-3,1.4-3,3v0.8c0,1.6,1.3,3,3,3h13.7c1.7,0,3.3,1.3,3.6,2.9l0.6,2.9c0.3,1.6-0.7,2.9-2.4,2.9h-15.5c-1.7,0-3,1.4-3,3v2.5
					c0,1.6,1.3,3,3,3h17.1c1.6,0,3.3,1.3,3.8,2.9l1.1,3.9c0.4,1.6-0.6,2.9-2.2,2.9h-29.2c-1.7,0-3-1.4-3-3V354.1z"/>
			</defs>
			<use xlink:href="#SVGID_3_"  overflow="visible" fill="#6B439A"/>
			<clipPath id="SVGID_4_">
				<use xlink:href="#SVGID_3_"  overflow="visible"/>
			</clipPath>
			<g clip-path="url(#SVGID_4_)">
				<path fill="#6B439A" d="M198.6,441.4"/>
				<path fill="none" stroke="#FFFFFF" stroke-width="5" stroke-miterlimit="10" d="M198.6,441.4"/>
			</g>
			<use xlink:href="#SVGID_3_"  overflow="visible" fill="none" stroke="#FFFFFF" stroke-miterlimit="10"/>
		</g>
		<g>
			<defs>
				<path id="SVGID_5_" d="M155.2,354.1c0-1.6,1.3-3,3-3h19.6c1.6,0,3.3,1.3,3.7,2.9l0.7,3.3c0.4,1.6-0.7,2.9-2.3,2.9h-12.2
					c-1.7,0-3,1.4-3,3v0.8c0,1.6,1.3,3,3,3h13.7c1.7,0,3.3,1.3,3.6,2.9l0.6,2.9c0.3,1.6-0.7,2.9-2.4,2.9h-15.5c-1.7,0-3,1.4-3,3v2.5
					c0,1.6,1.3,3,3,3h17.1c1.6,0,3.3,1.3,3.8,2.9l1.1,3.9c0.4,1.6-0.6,2.9-2.2,2.9h-29.2c-1.7,0-3-1.4-3-3V354.1z"/>
			</defs>
			<clipPath id="SVGID_6_">
				<use xlink:href="#SVGID_5_"  overflow="visible"/>
			</clipPath>
		</g>
	</g>
	<g>
		<path d="M181.5,354c-0.4-1.6,0.7-2.9,2.3-2.9h6.6c1.6,0,3.3,1.3,3.6,2.9l3.4,18.1c0.3,1.6,0.9,1.6,1.4,0.1l5-18.3
			c0.4-1.6,2.1-2.9,3.8-2.9h6.6c1.6,0,3.4,1.3,3.8,2.9l5.1,18.2c0.4,1.6,1.1,1.6,1.4-0.1l3.4-18.1c0.3-1.6,1.9-2.9,3.6-2.9h6.5
			c1.6,0,2.7,1.3,2.4,2.9l-8.2,37.1c-0.4,1.6-2,2.9-3.6,2.9h-7c-1.6,0-3.4-1.3-3.8-2.9l-5.9-21.3c-0.4-1.6-1.2-1.6-1.6,0l-5.9,21.3
			c-0.4,1.6-2.2,2.9-3.8,2.9h-7c-1.6,0-3.3-1.3-3.7-2.9L181.5,354z"/>
	</g>
	<g>
		<g>
			<defs>
				<path id="SVGID_7_" d="M238.4,354.2c0.3-1.6,2-2.9,3.6-2.9h12.7c1.6,0,4.3,0.2,6,0.4c0,0,4.9,0.7,7.1,3c2.2,2.3,3.3,5.5,3.3,9.6
					c0,4.3-1.2,7.6-3.6,10.1c-2.4,2.4-8.1,3.2-8.1,3.2c-1.6,0.2-4.3,0.4-6,0.4h-0.8c-1.6,0-3.3,1.3-3.7,2.9l-2.3,9.9
					c-0.4,1.6-2,2.9-3.7,2.9h-9.6c-1.6,0-2.7-1.3-2.4-2.9L238.4,354.2z"/>
			</defs>
			<clipPath id="SVGID_8_">
				<use xlink:href="#SVGID_7_"  overflow="visible"/>
			</clipPath>
		</g>
		<g>
			<defs>
				<path id="SVGID_9_" d="M238.4,354.2c0.3-1.6,2-2.9,3.6-2.9h12.7c1.6,0,4.3,0.2,6,0.4c0,0,4.9,0.7,7.1,3c2.2,2.3,3.3,5.5,3.3,9.6
					c0,4.3-1.2,7.6-3.6,10.1c-2.4,2.4-8.1,3.2-8.1,3.2c-1.6,0.2-4.3,0.4-6,0.4h-0.8c-1.6,0-3.3,1.3-3.7,2.9l-2.3,9.9
					c-0.4,1.6-2,2.9-3.7,2.9h-9.6c-1.6,0-2.7-1.3-2.4-2.9L238.4,354.2z"/>
			</defs>
			<use xlink:href="#SVGID_9_"  overflow="visible" fill="#100B13"/>
			<clipPath id="SVGID_10_">
				<use xlink:href="#SVGID_9_"  overflow="visible"/>
			</clipPath>
			<g clip-path="url(#SVGID_10_)">
				<path fill="#100B13" d="M223.2,440.8"/>
				<path fill="none" stroke="#FFFFFF" stroke-width="5" stroke-miterlimit="10" d="M223.2,440.8"/>
			</g>
			<use xlink:href="#SVGID_9_"  overflow="visible" fill="none" stroke="#FFFFFF" stroke-miterlimit="10"/>
		</g>
		<g>
			<defs>
				<path id="SVGID_11_" d="M238.4,354.2c0.3-1.6,2-2.9,3.6-2.9h12.7c1.6,0,4.3,0.2,6,0.4c0,0,4.9,0.7,7.1,3
					c2.2,2.3,3.3,5.5,3.3,9.6c0,4.3-1.2,7.6-3.6,10.1c-2.4,2.4-8.1,3.2-8.1,3.2c-1.6,0.2-4.3,0.4-6,0.4h-0.8c-1.6,0-3.3,1.3-3.7,2.9
					l-2.3,9.9c-0.4,1.6-2,2.9-3.7,2.9h-9.6c-1.6,0-2.7-1.3-2.4-2.9L238.4,354.2z"/>
			</defs>
			<clipPath id="SVGID_12_">
				<use xlink:href="#SVGID_11_"  overflow="visible"/>
			</clipPath>
		</g>
	</g>
</g>
<g>
	<path d="M288.7,371c0,0.1,0,0.2,0,0.2c0,0.1,0,0.1-0.1,0.2s-0.1,0.1-0.1,0.1s-0.1,0-0.1,0h-5.9c-0.1,0-0.2,0-0.4-0.1
		c-0.1-0.1-0.2-0.2-0.2-0.5v-11.4c0-0.2,0.1-0.4,0.2-0.5c0.1-0.1,0.2-0.1,0.4-0.1h5.8c0,0,0.1,0,0.1,0s0.1,0.1,0.1,0.1
		c0,0,0,0.1,0.1,0.2c0,0.1,0,0.1,0,0.2c0,0.1,0,0.2,0,0.2c0,0.1,0,0.1-0.1,0.2c0,0-0.1,0.1-0.1,0.1s-0.1,0-0.1,0h-5.2v4.4h4.5
		c0.1,0,0.1,0,0.1,0s0.1,0.1,0.1,0.1c0,0,0,0.1,0.1,0.2c0,0.1,0,0.1,0,0.2c0,0.1,0,0.2,0,0.2c0,0.1,0,0.1-0.1,0.2
		c0,0-0.1,0.1-0.1,0.1s-0.1,0-0.1,0h-4.5v5h5.3c0,0,0.1,0,0.1,0s0.1,0.1,0.1,0.1s0,0.1,0.1,0.2C288.7,370.8,288.7,370.9,288.7,371z"
		/>
	<path d="M292.6,371.3c0,0,0,0.1,0,0.1s-0.1,0.1-0.1,0.1c0,0-0.1,0-0.2,0c-0.1,0-0.2,0-0.3,0c-0.1,0-0.2,0-0.3,0c-0.1,0-0.1,0-0.2,0
		c0,0-0.1,0-0.1-0.1c0,0,0-0.1,0-0.1v-13.2c0,0,0-0.1,0-0.1c0,0,0-0.1,0.1-0.1c0,0,0.1,0,0.2,0c0.1,0,0.2,0,0.3,0c0.1,0,0.2,0,0.3,0
		c0.1,0,0.1,0,0.2,0c0,0,0.1,0.1,0.1,0.1s0,0.1,0,0.1V371.3z"/>
	<path d="M303.1,366.5c0,0.2-0.1,0.4-0.2,0.5c-0.1,0.1-0.2,0.1-0.4,0.1h-6c0,0.5,0.1,1,0.2,1.5s0.3,0.8,0.5,1.1
		c0.2,0.3,0.6,0.6,1,0.7c0.4,0.2,0.9,0.3,1.5,0.3c0.4,0,0.8,0,1.1-0.1c0.3-0.1,0.6-0.2,0.8-0.2c0.2-0.1,0.4-0.2,0.6-0.2
		c0.2-0.1,0.3-0.1,0.3-0.1c0,0,0.1,0,0.1,0c0,0,0.1,0.1,0.1,0.1s0,0.1,0,0.2s0,0.1,0,0.2c0,0,0,0.1,0,0.1c0,0,0,0.1,0,0.1
		s0,0.1,0,0.1s0,0.1-0.1,0.1c0,0-0.1,0.1-0.3,0.2c-0.2,0.1-0.4,0.2-0.7,0.2s-0.6,0.2-1,0.2s-0.8,0.1-1.2,0.1c-0.7,0-1.3-0.1-1.8-0.3
		s-1-0.5-1.3-0.9c-0.4-0.4-0.6-0.9-0.8-1.5s-0.3-1.3-0.3-2.1c0-0.7,0.1-1.4,0.3-2c0.2-0.6,0.5-1.1,0.8-1.5c0.4-0.4,0.8-0.7,1.3-0.9
		c0.5-0.2,1.1-0.3,1.7-0.3c0.7,0,1.2,0.1,1.7,0.3s0.9,0.5,1.2,0.9s0.5,0.8,0.7,1.3c0.1,0.5,0.2,1,0.2,1.6V366.5z M301.9,366.1
		c0-0.9-0.2-1.7-0.6-2.2s-1.1-0.8-2-0.8c-0.4,0-0.8,0.1-1.2,0.2c-0.3,0.2-0.6,0.4-0.8,0.7c-0.2,0.3-0.4,0.6-0.5,1
		c-0.1,0.4-0.2,0.7-0.2,1.1H301.9z"/>
	<path d="M318.4,371.3c0,0,0,0.1,0,0.1s-0.1,0.1-0.1,0.1s-0.1,0-0.2,0s-0.2,0-0.3,0c-0.1,0-0.2,0-0.3,0s-0.1,0-0.2,0s-0.1,0-0.1-0.1
		s0-0.1,0-0.1v-5.4c0-0.4,0-0.8-0.1-1.1s-0.2-0.6-0.4-0.9s-0.4-0.4-0.6-0.6s-0.5-0.2-0.9-0.2c-0.4,0-0.8,0.2-1.2,0.5
		s-0.9,0.8-1.4,1.4v6.3c0,0,0,0.1,0,0.1s-0.1,0.1-0.1,0.1s-0.1,0-0.2,0s-0.2,0-0.3,0c-0.1,0-0.2,0-0.3,0c-0.1,0-0.1,0-0.2,0
		c0,0-0.1,0-0.1-0.1c0,0,0-0.1,0-0.1v-5.4c0-0.4,0-0.8-0.1-1.1s-0.2-0.6-0.4-0.9c-0.2-0.2-0.4-0.4-0.6-0.6s-0.5-0.2-0.9-0.2
		c-0.4,0-0.8,0.2-1.2,0.5s-0.9,0.8-1.4,1.4v6.3c0,0,0,0.1,0,0.1s-0.1,0.1-0.1,0.1c0,0-0.1,0-0.2,0c-0.1,0-0.2,0-0.3,0
		c-0.1,0-0.2,0-0.3,0c-0.1,0-0.1,0-0.2,0c0,0-0.1,0-0.1-0.1c0,0,0-0.1,0-0.1v-8.8c0,0,0-0.1,0-0.1c0,0,0-0.1,0.1-0.1
		c0,0,0.1,0,0.2,0s0.2,0,0.3,0c0.1,0,0.2,0,0.3,0c0.1,0,0.1,0,0.2,0s0.1,0.1,0.1,0.1c0,0,0,0.1,0,0.1v1.3c0.5-0.6,1-1,1.4-1.2
		c0.5-0.3,0.9-0.4,1.4-0.4c0.4,0,0.7,0,1,0.1c0.3,0.1,0.5,0.2,0.8,0.4c0.2,0.2,0.4,0.4,0.6,0.6s0.3,0.5,0.4,0.7
		c0.3-0.3,0.6-0.6,0.9-0.9s0.5-0.4,0.8-0.6s0.5-0.2,0.7-0.3s0.5-0.1,0.7-0.1c0.6,0,1,0.1,1.4,0.3s0.7,0.5,0.9,0.8s0.4,0.7,0.5,1.2
		s0.2,0.9,0.2,1.4V371.3z"/>
	<path d="M328.8,366.5c0,0.2-0.1,0.4-0.2,0.5s-0.2,0.1-0.4,0.1h-6c0,0.5,0.1,1,0.2,1.5s0.3,0.8,0.5,1.1s0.6,0.6,1,0.7
		s0.9,0.3,1.5,0.3c0.4,0,0.8,0,1.1-0.1s0.6-0.2,0.8-0.2s0.4-0.2,0.6-0.2s0.3-0.1,0.3-0.1c0,0,0.1,0,0.1,0s0.1,0.1,0.1,0.1
		s0,0.1,0,0.2s0,0.1,0,0.2c0,0,0,0.1,0,0.1s0,0.1,0,0.1s0,0.1,0,0.1s0,0.1-0.1,0.1s-0.1,0.1-0.3,0.2s-0.4,0.2-0.7,0.2
		s-0.6,0.2-1,0.2s-0.8,0.1-1.2,0.1c-0.7,0-1.3-0.1-1.8-0.3s-1-0.5-1.3-0.9s-0.6-0.9-0.8-1.5s-0.3-1.3-0.3-2.1c0-0.7,0.1-1.4,0.3-2
		s0.5-1.1,0.8-1.5s0.8-0.7,1.3-0.9s1.1-0.3,1.7-0.3c0.7,0,1.2,0.1,1.7,0.3s0.9,0.5,1.2,0.9s0.5,0.8,0.7,1.3s0.2,1,0.2,1.6V366.5z
		 M327.6,366.1c0-0.9-0.2-1.7-0.6-2.2s-1.1-0.8-2-0.8c-0.4,0-0.8,0.1-1.2,0.2s-0.6,0.4-0.8,0.7s-0.4,0.6-0.5,1s-0.2,0.7-0.2,1.1
		H327.6z"/>
	<path d="M338.6,371.3c0,0,0,0.1,0,0.1s-0.1,0.1-0.1,0.1s-0.1,0-0.2,0s-0.2,0-0.3,0c-0.1,0-0.2,0-0.3,0s-0.1,0-0.2,0s-0.1,0-0.1-0.1
		s0-0.1,0-0.1v-5.2c0-0.5,0-1-0.1-1.3s-0.2-0.6-0.4-0.9s-0.4-0.4-0.6-0.6s-0.6-0.2-0.9-0.2c-0.4,0-0.9,0.2-1.3,0.5s-0.9,0.8-1.4,1.4
		v6.3c0,0,0,0.1,0,0.1s-0.1,0.1-0.1,0.1s-0.1,0-0.2,0s-0.2,0-0.3,0c-0.1,0-0.2,0-0.3,0s-0.1,0-0.2,0s-0.1,0-0.1-0.1s0-0.1,0-0.1
		v-8.8c0,0,0-0.1,0-0.1s0-0.1,0.1-0.1s0.1,0,0.2,0s0.2,0,0.3,0s0.2,0,0.3,0s0.1,0,0.2,0s0.1,0.1,0.1,0.1s0,0.1,0,0.1v1.3
		c0.5-0.6,1-1,1.5-1.2s1-0.4,1.5-0.4c0.6,0,1.1,0.1,1.5,0.3s0.7,0.5,1,0.8s0.4,0.7,0.5,1.2s0.2,1,0.2,1.6V371.3z"/>
	<path d="M345.9,370.8c0,0.1,0,0.2,0,0.3s-0.1,0.2-0.1,0.2s-0.1,0.1-0.2,0.1s-0.2,0.1-0.3,0.1s-0.3,0.1-0.4,0.1s-0.3,0-0.4,0
		c-0.4,0-0.8-0.1-1.1-0.2s-0.6-0.3-0.8-0.5s-0.3-0.5-0.4-0.9s-0.1-0.8-0.1-1.3v-5.5h-1.3c-0.1,0-0.2,0-0.2-0.1s-0.1-0.2-0.1-0.4
		c0-0.1,0-0.2,0-0.2s0-0.1,0.1-0.2s0.1-0.1,0.1-0.1s0.1,0,0.1,0h1.3v-2.2c0,0,0-0.1,0-0.1s0-0.1,0.1-0.1s0.1,0,0.2,0s0.2,0,0.3,0
		c0.1,0,0.2,0,0.3,0s0.1,0,0.2,0s0.1,0.1,0.1,0.1s0,0.1,0,0.1v2.2h2.4c0,0,0.1,0,0.1,0s0.1,0.1,0.1,0.1s0,0.1,0.1,0.2s0,0.1,0,0.2
		c0,0.2,0,0.3-0.1,0.4s-0.1,0.1-0.2,0.1h-2.4v5.3c0,0.7,0.1,1.2,0.3,1.5s0.5,0.5,1,0.5c0.2,0,0.3,0,0.4,0s0.2-0.1,0.3-0.1
		s0.2-0.1,0.2-0.1s0.1,0,0.2,0c0,0,0.1,0,0.1,0s0,0,0.1,0.1s0,0.1,0,0.1S345.9,370.7,345.9,370.8z"/>
	<path d="M355.9,366.8c0,0.7-0.1,1.4-0.3,1.9s-0.5,1.1-0.8,1.5s-0.8,0.8-1.4,1s-1.2,0.4-1.9,0.4c-0.7,0-1.3-0.1-1.8-0.3
		s-1-0.5-1.3-0.9s-0.6-0.9-0.8-1.5s-0.3-1.2-0.3-2c0-0.7,0.1-1.4,0.3-1.9s0.4-1.1,0.8-1.5s0.8-0.8,1.4-1s1.2-0.4,1.9-0.4
		c0.7,0,1.3,0.1,1.8,0.3s0.9,0.5,1.3,0.9s0.6,0.9,0.8,1.5S355.9,366.1,355.9,366.8z M354.6,366.9c0-0.5,0-1-0.1-1.4
		s-0.3-0.9-0.5-1.2s-0.5-0.6-0.9-0.8s-0.9-0.3-1.4-0.3c-0.5,0-1,0.1-1.4,0.3s-0.7,0.5-0.9,0.8s-0.4,0.7-0.5,1.2s-0.2,0.9-0.2,1.5
		c0,0.5,0,1,0.1,1.5s0.3,0.9,0.5,1.2s0.5,0.6,0.9,0.8s0.9,0.3,1.4,0.3c0.5,0,1-0.1,1.4-0.3s0.7-0.4,0.9-0.8s0.4-0.7,0.5-1.2
		S354.6,367.5,354.6,366.9z"/>
	<path d="M363.4,362.9c0,0.1,0,0.2,0,0.2s0,0.1,0,0.2s0,0.1-0.1,0.1s-0.1,0-0.1,0c-0.1,0-0.1,0-0.2,0s-0.2-0.1-0.3-0.1
		s-0.2-0.1-0.3-0.1s-0.3,0-0.4,0c-0.2,0-0.3,0-0.5,0.1s-0.3,0.2-0.5,0.4s-0.4,0.4-0.6,0.7s-0.4,0.6-0.7,1v6c0,0,0,0.1,0,0.1
		s-0.1,0.1-0.1,0.1s-0.1,0-0.2,0s-0.2,0-0.3,0c-0.1,0-0.2,0-0.3,0s-0.1,0-0.2,0s-0.1,0-0.1-0.1s0-0.1,0-0.1v-8.8c0,0,0-0.1,0-0.1
		s0-0.1,0.1-0.1s0.1,0,0.2,0s0.2,0,0.3,0s0.2,0,0.3,0s0.1,0,0.2,0s0.1,0.1,0.1,0.1s0,0.1,0,0.1v1.4c0.3-0.4,0.5-0.7,0.7-0.9
		s0.4-0.4,0.6-0.5s0.4-0.2,0.6-0.3s0.4-0.1,0.6-0.1c0.1,0,0.2,0,0.3,0s0.2,0,0.4,0.1s0.2,0.1,0.3,0.1s0.2,0.1,0.2,0.1
		s0.1,0.1,0.1,0.1s0,0.1,0,0.1s0,0.1,0,0.1S363.4,362.8,363.4,362.9z"/>
	<path d="M381.5,371.3c0,0.1-0.1,0.1-0.1,0.1s-0.1,0.1-0.2,0.1s-0.1,0-0.2,0s-0.2,0-0.3,0s-0.2,0-0.3,0s-0.2,0-0.2,0s-0.1,0-0.2-0.1
		s-0.1-0.1-0.1-0.1l-3-10.4h0l-2.7,10.4c0,0.1,0,0.1-0.1,0.1s-0.1,0.1-0.1,0.1s-0.1,0-0.2,0s-0.2,0-0.3,0c-0.1,0-0.2,0-0.3,0
		s-0.2,0-0.2,0s-0.1,0-0.2-0.1s-0.1-0.1-0.1-0.1l-3.6-12c0-0.1,0-0.2,0-0.2s0-0.1,0.1-0.1s0.1-0.1,0.2-0.1s0.2,0,0.3,0s0.3,0,0.3,0
		s0.1,0,0.2,0s0.1,0,0.1,0.1s0,0.1,0,0.1l3.2,11.1h0l2.9-11.1c0,0,0-0.1,0-0.1s0.1-0.1,0.1-0.1s0.1,0,0.2,0s0.2,0,0.3,0
		c0.1,0,0.2,0,0.3,0s0.1,0,0.2,0s0.1,0,0.1,0.1s0,0.1,0.1,0.1l3.2,11.1h0l3.1-11.1c0,0,0-0.1,0-0.1s0-0.1,0.1-0.1s0.1,0,0.2,0
		s0.2,0,0.3,0c0.1,0,0.3,0,0.3,0s0.1,0,0.2,0.1s0.1,0.1,0.1,0.1s0,0.1,0,0.2L381.5,371.3z"/>
	<path d="M388.8,359.5c0,0.3-0.1,0.5-0.2,0.6s-0.3,0.2-0.6,0.2c-0.3,0-0.5-0.1-0.6-0.2s-0.2-0.3-0.2-0.6s0.1-0.5,0.2-0.6
		s0.3-0.2,0.6-0.2c0.3,0,0.5,0.1,0.6,0.2S388.8,359.2,388.8,359.5z M388.7,371.3c0,0,0,0.1,0,0.1s-0.1,0.1-0.1,0.1s-0.1,0-0.2,0
		s-0.2,0-0.3,0c-0.1,0-0.2,0-0.3,0s-0.1,0-0.2,0s-0.1,0-0.1-0.1s0-0.1,0-0.1v-8.8c0,0,0-0.1,0-0.1s0-0.1,0.1-0.1s0.1,0,0.2,0
		s0.2,0,0.3,0c0.1,0,0.2,0,0.3,0s0.1,0,0.2,0s0.1,0.1,0.1,0.1s0,0.1,0,0.1V371.3z"/>
	<path d="M399,371.3c0,0,0,0.1,0,0.1s0,0.1-0.1,0.1s-0.1,0-0.2,0s-0.1,0-0.2,0c-0.1,0-0.2,0-0.3,0s-0.1,0-0.2,0s-0.1,0-0.1-0.1
		s0-0.1,0-0.1v-1.3c-0.5,0.5-1,0.9-1.5,1.2s-1,0.4-1.6,0.4c-0.6,0-1.2-0.1-1.6-0.4s-0.8-0.6-1.1-1s-0.5-0.9-0.6-1.5
		s-0.2-1.2-0.2-1.8c0-0.7,0.1-1.4,0.2-2s0.4-1.1,0.7-1.5s0.7-0.7,1.2-1s1-0.3,1.6-0.3c0.5,0,1,0.1,1.5,0.4s0.9,0.6,1.3,1v-5.3
		c0,0,0-0.1,0-0.1s0-0.1,0.1-0.1s0.1,0,0.2,0s0.2,0,0.3,0c0.1,0,0.2,0,0.3,0s0.1,0,0.2,0s0.1,0,0.1,0.1s0,0.1,0,0.1V371.3z
		 M397.9,365c-0.5-0.6-1-1-1.4-1.4s-0.9-0.5-1.4-0.5c-0.4,0-0.8,0.1-1.2,0.3s-0.6,0.5-0.8,0.8s-0.3,0.7-0.4,1.2s-0.1,0.9-0.1,1.3
		c0,0.5,0,1,0.1,1.4s0.2,0.9,0.4,1.2s0.4,0.7,0.8,0.9s0.7,0.3,1.2,0.3c0.2,0,0.5,0,0.7-0.1s0.4-0.2,0.7-0.3s0.5-0.3,0.7-0.6
		s0.5-0.5,0.8-0.9V365z"/>
	<path d="M409.4,362.8c0,0.2,0,0.3-0.1,0.4s-0.1,0.1-0.2,0.1h-1.4c0.3,0.3,0.5,0.6,0.6,0.9s0.2,0.7,0.2,1c0,0.5-0.1,0.9-0.2,1.3
		s-0.4,0.7-0.7,1s-0.6,0.5-1,0.6s-0.8,0.2-1.3,0.2c-0.4,0-0.8-0.1-1.1-0.2s-0.6-0.2-0.8-0.4c-0.1,0.1-0.2,0.3-0.3,0.4
		s-0.1,0.4-0.1,0.6c0,0.2,0.1,0.5,0.4,0.6s0.5,0.3,0.9,0.3l2.4,0.1c0.4,0,0.8,0.1,1.1,0.2s0.7,0.2,0.9,0.4s0.5,0.4,0.6,0.7
		s0.2,0.6,0.2,1c0,0.4-0.1,0.8-0.2,1.1s-0.4,0.7-0.7,0.9s-0.8,0.5-1.3,0.6s-1.1,0.2-1.9,0.2c-0.7,0-1.3-0.1-1.8-0.2
		s-0.9-0.3-1.2-0.5s-0.5-0.5-0.7-0.7s-0.2-0.6-0.2-0.9c0-0.2,0-0.4,0.1-0.6s0.1-0.4,0.2-0.6s0.2-0.4,0.4-0.5s0.3-0.3,0.6-0.5
		c-0.3-0.2-0.6-0.4-0.7-0.6s-0.2-0.5-0.2-0.8c0-0.4,0.1-0.8,0.2-1.1s0.3-0.6,0.6-0.8c-0.2-0.2-0.3-0.5-0.4-0.8s-0.2-0.6-0.2-1.1
		c0-0.5,0.1-0.9,0.2-1.3s0.4-0.7,0.7-1s0.6-0.5,1-0.6s0.8-0.2,1.3-0.2c0.3,0,0.5,0,0.7,0s0.4,0.1,0.6,0.1h2.6c0.1,0,0.2,0,0.2,0.1
		S409.4,362.6,409.4,362.8z M408.1,372.2c0-0.4-0.2-0.8-0.5-1s-0.8-0.4-1.4-0.4l-2.6-0.1c-0.2,0.2-0.4,0.4-0.6,0.5s-0.3,0.3-0.4,0.5
		s-0.1,0.3-0.2,0.4s0,0.3,0,0.4c0,0.5,0.2,0.8,0.7,1.1s1.2,0.4,2,0.4c0.5,0,1-0.1,1.4-0.2s0.7-0.2,0.9-0.4s0.4-0.4,0.5-0.6
		S408.1,372.5,408.1,372.2z M407.2,365.2c0-0.7-0.2-1.2-0.6-1.6s-0.9-0.6-1.6-0.6c-0.3,0-0.6,0.1-0.9,0.2s-0.5,0.3-0.6,0.5
		s-0.3,0.4-0.4,0.7s-0.1,0.6-0.1,0.8c0,0.7,0.2,1.2,0.6,1.5s0.9,0.6,1.5,0.6c0.4,0,0.7-0.1,0.9-0.2s0.5-0.3,0.6-0.5s0.3-0.4,0.4-0.7
		S407.2,365.5,407.2,365.2z"/>
	<path d="M418.7,366.5c0,0.2-0.1,0.4-0.2,0.5s-0.2,0.1-0.4,0.1h-6c0,0.5,0.1,1,0.2,1.5s0.3,0.8,0.5,1.1s0.6,0.6,1,0.7
		s0.9,0.3,1.5,0.3c0.4,0,0.8,0,1.1-0.1s0.6-0.2,0.8-0.2s0.4-0.2,0.6-0.2s0.3-0.1,0.3-0.1c0,0,0.1,0,0.1,0s0.1,0.1,0.1,0.1
		s0,0.1,0,0.2s0,0.1,0,0.2c0,0,0,0.1,0,0.1s0,0.1,0,0.1s0,0.1,0,0.1s0,0.1-0.1,0.1s-0.1,0.1-0.3,0.2s-0.4,0.2-0.7,0.2
		s-0.6,0.2-1,0.2s-0.8,0.1-1.2,0.1c-0.7,0-1.3-0.1-1.8-0.3s-1-0.5-1.3-0.9s-0.6-0.9-0.8-1.5s-0.3-1.3-0.3-2.1c0-0.7,0.1-1.4,0.3-2
		s0.5-1.1,0.8-1.5s0.8-0.7,1.3-0.9s1.1-0.3,1.7-0.3c0.7,0,1.2,0.1,1.7,0.3s0.9,0.5,1.2,0.9s0.5,0.8,0.7,1.3s0.2,1,0.2,1.6V366.5z
		 M417.5,366.1c0-0.9-0.2-1.7-0.6-2.2s-1.1-0.8-2-0.8c-0.4,0-0.8,0.1-1.2,0.2s-0.6,0.4-0.8,0.7s-0.4,0.6-0.5,1s-0.2,0.7-0.2,1.1
		H417.5z"/>
	<path d="M425.6,370.8c0,0.1,0,0.2,0,0.3s-0.1,0.2-0.1,0.2s-0.1,0.1-0.2,0.1s-0.2,0.1-0.3,0.1s-0.3,0.1-0.4,0.1s-0.3,0-0.4,0
		c-0.4,0-0.8-0.1-1.1-0.2s-0.6-0.3-0.8-0.5s-0.3-0.5-0.4-0.9s-0.1-0.8-0.1-1.3v-5.5h-1.3c-0.1,0-0.2,0-0.2-0.1s-0.1-0.2-0.1-0.4
		c0-0.1,0-0.2,0-0.2s0-0.1,0.1-0.2s0.1-0.1,0.1-0.1s0.1,0,0.1,0h1.3v-2.2c0,0,0-0.1,0-0.1s0-0.1,0.1-0.1s0.1,0,0.2,0s0.2,0,0.3,0
		c0.1,0,0.2,0,0.3,0s0.1,0,0.2,0s0.1,0.1,0.1,0.1s0,0.1,0,0.1v2.2h2.4c0,0,0.1,0,0.1,0s0.1,0.1,0.1,0.1s0,0.1,0.1,0.2s0,0.1,0,0.2
		c0,0.2,0,0.3-0.1,0.4s-0.1,0.1-0.2,0.1h-2.4v5.3c0,0.7,0.1,1.2,0.3,1.5s0.5,0.5,1,0.5c0.2,0,0.3,0,0.4,0s0.2-0.1,0.3-0.1
		s0.2-0.1,0.2-0.1s0.1,0,0.2,0c0,0,0.1,0,0.1,0s0,0,0.1,0.1s0,0.1,0,0.1S425.6,370.7,425.6,370.8z"/>
	<path d="M439.9,362.5c0,0.6-0.1,1.1-0.3,1.6s-0.5,0.9-0.9,1.3s-0.8,0.6-1.4,0.8s-1.2,0.3-1.9,0.3h-1.6v4.8c0,0,0,0.1,0,0.1
		s-0.1,0.1-0.1,0.1s-0.1,0-0.2,0s-0.2,0-0.3,0c-0.1,0-0.2,0-0.3,0s-0.1,0-0.2,0s-0.1,0-0.1-0.1s0-0.1,0-0.1v-11.8
		c0-0.2,0.1-0.4,0.2-0.5s0.2-0.1,0.4-0.1h2.6c0.3,0,0.5,0,0.7,0s0.5,0.1,0.8,0.1s0.7,0.2,1,0.4s0.6,0.5,0.9,0.8s0.4,0.6,0.5,1
		S439.9,362.1,439.9,362.5z M438.6,362.6c0-0.5-0.1-1-0.3-1.4s-0.5-0.7-0.8-0.8s-0.6-0.3-1-0.4s-0.7-0.1-1-0.1h-1.8v5.5h1.7
		c0.6,0,1-0.1,1.4-0.2s0.7-0.3,0.9-0.6s0.4-0.5,0.6-0.9S438.6,363,438.6,362.6z"/>
	<path d="M447.3,362.9c0,0.1,0,0.2,0,0.2s0,0.1,0,0.2s0,0.1-0.1,0.1s-0.1,0-0.1,0c-0.1,0-0.1,0-0.2,0s-0.2-0.1-0.3-0.1
		s-0.2-0.1-0.3-0.1s-0.3,0-0.4,0c-0.2,0-0.3,0-0.5,0.1s-0.3,0.2-0.5,0.4s-0.4,0.4-0.6,0.7s-0.4,0.6-0.7,1v6c0,0,0,0.1,0,0.1
		s-0.1,0.1-0.1,0.1s-0.1,0-0.2,0s-0.2,0-0.3,0c-0.1,0-0.2,0-0.3,0s-0.1,0-0.2,0s-0.1,0-0.1-0.1s0-0.1,0-0.1v-8.8c0,0,0-0.1,0-0.1
		s0-0.1,0.1-0.1s0.1,0,0.2,0s0.2,0,0.3,0s0.2,0,0.3,0s0.1,0,0.2,0s0.1,0.1,0.1,0.1s0,0.1,0,0.1v1.4c0.3-0.4,0.5-0.7,0.7-0.9
		s0.4-0.4,0.6-0.5s0.4-0.2,0.6-0.3s0.4-0.1,0.6-0.1c0.1,0,0.2,0,0.3,0s0.2,0,0.4,0.1s0.2,0.1,0.3,0.1s0.2,0.1,0.2,0.1
		s0.1,0.1,0.1,0.1s0,0.1,0,0.1s0,0.1,0,0.1S447.3,362.8,447.3,362.9z"/>
	<path d="M456.7,366.8c0,0.7-0.1,1.4-0.3,1.9s-0.5,1.1-0.8,1.5s-0.8,0.8-1.4,1s-1.2,0.4-1.9,0.4c-0.7,0-1.3-0.1-1.8-0.3
		s-1-0.5-1.3-0.9s-0.6-0.9-0.8-1.5s-0.3-1.2-0.3-2c0-0.7,0.1-1.4,0.3-1.9s0.4-1.1,0.8-1.5s0.8-0.8,1.4-1s1.2-0.4,1.9-0.4
		c0.7,0,1.3,0.1,1.8,0.3s0.9,0.5,1.3,0.9s0.6,0.9,0.8,1.5S456.7,366.1,456.7,366.8z M455.5,366.9c0-0.5,0-1-0.1-1.4
		s-0.3-0.9-0.5-1.2s-0.5-0.6-0.9-0.8s-0.9-0.3-1.4-0.3c-0.5,0-1,0.1-1.4,0.3s-0.7,0.5-0.9,0.8s-0.4,0.7-0.5,1.2s-0.2,0.9-0.2,1.5
		c0,0.5,0,1,0.1,1.5s0.3,0.9,0.5,1.2s0.5,0.6,0.9,0.8s0.9,0.3,1.4,0.3c0.5,0,1-0.1,1.4-0.3s0.7-0.4,0.9-0.8s0.4-0.7,0.5-1.2
		S455.5,367.5,455.5,366.9z"/>
</g>
<g>
	<path d="M396.2,381.9l-1,2.7h2.6l-0.2,0.6H395l-1.2,3.3h-0.7l2.6-7.2h3.5l-0.2,0.6H396.2z"/>
	<path d="M400,388.6c-0.4,0-0.7-0.1-1-0.2c-0.3-0.1-0.5-0.3-0.6-0.5c-0.1-0.2-0.2-0.5-0.2-0.8s0.1-0.7,0.2-1.1
		c0.2-0.4,0.4-0.8,0.6-1.2c0.2-0.3,0.5-0.6,0.8-0.9c0.3-0.2,0.6-0.4,1-0.5c0.4-0.1,0.7-0.2,1.1-0.2c0.4,0,0.7,0.1,0.9,0.2
		s0.4,0.3,0.6,0.5c0.1,0.2,0.2,0.5,0.2,0.8c0,0.3-0.1,0.7-0.2,1.1c-0.1,0.4-0.3,0.8-0.6,1.1c-0.2,0.3-0.5,0.6-0.8,0.9
		c-0.3,0.2-0.6,0.4-1,0.6C400.8,388.6,400.4,388.6,400,388.6z M401.8,383.8c-0.3,0-0.6,0-0.8,0.1c-0.3,0.1-0.5,0.2-0.7,0.4
		c-0.2,0.2-0.4,0.4-0.6,0.7c-0.2,0.3-0.3,0.6-0.5,0.9c-0.1,0.3-0.2,0.6-0.2,0.9s0,0.5,0.1,0.7c0.1,0.2,0.2,0.3,0.4,0.4
		c0.2,0.1,0.4,0.1,0.7,0.1c0.3,0,0.6,0,0.8-0.1c0.3-0.1,0.5-0.2,0.7-0.4s0.4-0.4,0.6-0.7c0.2-0.3,0.3-0.6,0.4-0.9
		c0.3-0.7,0.3-1.2,0.1-1.6C402.8,384,402.4,383.8,401.8,383.8z"/>
	<path d="M408.1,384c-0.1-0.1-0.3-0.2-0.5-0.2c-0.2,0-0.3,0-0.5,0.1c-0.2,0.1-0.3,0.2-0.4,0.3c-0.1,0.1-0.3,0.2-0.4,0.4
		c-0.1,0.1-0.2,0.3-0.3,0.5c-0.1,0.2-0.2,0.3-0.3,0.5c-0.1,0.2-0.1,0.3-0.2,0.5l-0.9,2.5h-0.6l1.9-5.2h0.6l-0.4,1.1h0
		c0.1-0.2,0.3-0.4,0.4-0.5c0.1-0.1,0.3-0.3,0.5-0.4c0.2-0.1,0.3-0.2,0.5-0.2c0.2-0.1,0.3-0.1,0.5-0.1c0.1,0,0.2,0,0.3,0
		c0.1,0,0.1,0,0.2,0.1L408.1,384z"/>
	<path d="M410.3,388.5l2.6-7.2h3.5l-0.2,0.6h-2.9l-1,2.7h2.6l-0.2,0.6h-2.6l-1,2.8h3l-0.2,0.6H410.3z"/>
	<path d="M415.4,388.5l2.8-7.7h0.6l-2.8,7.7H415.4z"/>
	<path d="M418.9,386.1c-0.1,0.3-0.2,0.6-0.2,0.9c0,0.3,0,0.5,0.1,0.6c0.1,0.2,0.2,0.3,0.4,0.4c0.2,0.1,0.4,0.1,0.7,0.1
		c0.6,0,1.2-0.2,1.9-0.6l-0.2,0.6c-0.6,0.4-1.3,0.5-2,0.5c-0.3,0-0.6-0.1-0.9-0.2c-0.2-0.1-0.4-0.3-0.5-0.5
		c-0.1-0.2-0.2-0.5-0.1-0.9c0-0.3,0.1-0.7,0.3-1.2c0.1-0.4,0.3-0.7,0.6-1.1c0.2-0.3,0.5-0.6,0.8-0.9c0.3-0.2,0.6-0.4,0.9-0.6
		c0.3-0.1,0.7-0.2,1-0.2c0.3,0,0.6,0.1,0.8,0.2c0.2,0.1,0.4,0.3,0.5,0.5c0.1,0.2,0.1,0.5,0.1,0.8c0,0.3-0.1,0.7-0.2,1l-0.1,0.3
		H418.9z M422.2,385.5c0.2-0.5,0.2-1,0.1-1.3c-0.1-0.3-0.4-0.4-0.9-0.4c-0.2,0-0.4,0-0.7,0.1c-0.2,0.1-0.4,0.2-0.6,0.3
		c-0.2,0.1-0.4,0.3-0.5,0.5c-0.2,0.2-0.3,0.4-0.5,0.7H422.2z"/>
	<path d="M429.5,388.5l1.1-3c0.1-0.3,0.2-0.6,0.2-0.8c0-0.2,0-0.4,0-0.5c0-0.1-0.1-0.2-0.3-0.3c-0.1-0.1-0.3-0.1-0.5-0.1
		c-0.2,0-0.4,0-0.6,0.1s-0.4,0.2-0.6,0.4c-0.2,0.2-0.3,0.3-0.5,0.6s-0.3,0.4-0.4,0.7l-1.1,3h-0.6l1.1-3.1c0.4-1.1,0.2-1.6-0.7-1.6
		c-0.2,0-0.4,0-0.6,0.1c-0.2,0.1-0.4,0.2-0.6,0.4c-0.2,0.2-0.3,0.3-0.5,0.6c-0.1,0.2-0.3,0.5-0.4,0.7l-1.1,3H423l1.9-5.2h0.6
		l-0.3,0.8h0c0.6-0.6,1.2-1,1.9-1c0.2,0,0.3,0,0.5,0.1c0.1,0.1,0.3,0.1,0.4,0.2s0.2,0.2,0.2,0.4c0,0.1,0.1,0.3,0,0.5
		c0.3-0.4,0.7-0.6,1-0.8c0.4-0.2,0.7-0.3,1.1-0.3c1.1,0,1.4,0.7,0.9,2.1l-1.2,3.2H429.5z"/>
	<path d="M432.9,386.1c-0.1,0.3-0.2,0.6-0.2,0.9c0,0.3,0,0.5,0.1,0.6c0.1,0.2,0.2,0.3,0.4,0.4c0.2,0.1,0.4,0.1,0.7,0.1
		c0.6,0,1.2-0.2,1.9-0.6l-0.2,0.6c-0.6,0.4-1.3,0.5-2,0.5c-0.3,0-0.6-0.1-0.9-0.2c-0.2-0.1-0.4-0.3-0.5-0.5
		c-0.1-0.2-0.2-0.5-0.1-0.9c0-0.3,0.1-0.7,0.3-1.2c0.1-0.4,0.3-0.7,0.6-1.1c0.2-0.3,0.5-0.6,0.8-0.9c0.3-0.2,0.6-0.4,0.9-0.6
		c0.3-0.1,0.7-0.2,1-0.2c0.3,0,0.6,0.1,0.8,0.2c0.2,0.1,0.4,0.3,0.5,0.5c0.1,0.2,0.1,0.5,0.1,0.8c0,0.3-0.1,0.7-0.2,1l-0.1,0.3
		H432.9z M436.2,385.5c0.2-0.5,0.2-1,0.1-1.3c-0.1-0.3-0.4-0.4-0.9-0.4c-0.2,0-0.4,0-0.7,0.1c-0.2,0.1-0.4,0.2-0.6,0.3
		c-0.2,0.1-0.4,0.3-0.5,0.5c-0.2,0.2-0.3,0.4-0.5,0.7H436.2z"/>
	<path d="M440.5,388.5l1.1-3c0.4-1.2,0.2-1.8-0.6-1.8c-0.2,0-0.5,0-0.7,0.1c-0.2,0.1-0.4,0.2-0.6,0.4c-0.2,0.2-0.4,0.3-0.5,0.6
		c-0.2,0.2-0.3,0.5-0.4,0.7l-1.1,3H437l1.9-5.2h0.6l-0.3,0.9h0c0.6-0.7,1.3-1,2.1-1c0.6,0,0.9,0.2,1.1,0.6c0.2,0.4,0.1,0.9-0.1,1.6
		l-1.1,3.1H440.5z"/>
	<path d="M445,388.5c-0.3,0.1-0.5,0.2-0.8,0.2c-0.8,0-1.1-0.5-0.7-1.4l1.2-3.3h-0.9l0.2-0.6h0.9l0.5-1.3l0.7-0.2l-0.6,1.5h1.3
		l-0.2,0.6h-1.3l-1.2,3.2c-0.1,0.4-0.2,0.6-0.1,0.8c0.1,0.2,0.2,0.2,0.5,0.2c0.2,0,0.4-0.1,0.6-0.2L445,388.5z"/>
	<path d="M448,388.6c-0.4,0-0.7-0.1-1-0.2c-0.3-0.1-0.5-0.3-0.6-0.5c-0.1-0.2-0.2-0.5-0.2-0.8s0.1-0.7,0.2-1.1
		c0.2-0.4,0.4-0.8,0.6-1.2c0.2-0.3,0.5-0.6,0.8-0.9c0.3-0.2,0.6-0.4,1-0.5c0.4-0.1,0.7-0.2,1.1-0.2c0.4,0,0.7,0.1,0.9,0.2
		s0.4,0.3,0.6,0.5c0.1,0.2,0.2,0.5,0.2,0.8c0,0.3-0.1,0.7-0.2,1.1c-0.1,0.4-0.3,0.8-0.6,1.1c-0.2,0.3-0.5,0.6-0.8,0.9
		c-0.3,0.2-0.6,0.4-1,0.6C448.8,388.6,448.4,388.6,448,388.6z M449.8,383.8c-0.3,0-0.6,0-0.8,0.1c-0.3,0.1-0.5,0.2-0.7,0.4
		c-0.2,0.2-0.4,0.4-0.6,0.7c-0.2,0.3-0.3,0.6-0.5,0.9c-0.1,0.3-0.2,0.6-0.2,0.9s0,0.5,0.1,0.7c0.1,0.2,0.2,0.3,0.4,0.4
		c0.2,0.1,0.4,0.1,0.7,0.1c0.3,0,0.6,0,0.8-0.1c0.3-0.1,0.5-0.2,0.7-0.4s0.4-0.4,0.6-0.7c0.2-0.3,0.3-0.6,0.4-0.9
		c0.3-0.7,0.3-1.2,0.1-1.6C450.8,384,450.4,383.8,449.8,383.8z"/>
	<path d="M456.1,384c-0.1-0.1-0.3-0.2-0.5-0.2c-0.2,0-0.3,0-0.5,0.1c-0.2,0.1-0.3,0.2-0.4,0.3c-0.1,0.1-0.3,0.2-0.4,0.4
		c-0.1,0.1-0.2,0.3-0.3,0.5c-0.1,0.2-0.2,0.3-0.3,0.5c-0.1,0.2-0.1,0.3-0.2,0.5l-0.9,2.5h-0.6l1.9-5.2h0.6l-0.4,1.1h0
		c0.1-0.2,0.3-0.4,0.4-0.5c0.1-0.1,0.3-0.3,0.5-0.4c0.2-0.1,0.3-0.2,0.5-0.2c0.2-0.1,0.3-0.1,0.5-0.1c0.1,0,0.2,0,0.3,0
		c0.1,0,0.1,0,0.2,0.1L456.1,384z"/>
</g>
</svg>
